<?xml version="1.0" encoding="UTF-8" standalone="no"?>
<!-- Generator: Adobe Illustrator 14.0.0, SVG Export Plug-In . SVG Version: 6.00 Build 43363)  -->

<svg
   xmlns:dc="http://purl.org/dc/elements/1.1/"
   xmlns:cc="http://creativecommons.org/ns#"
   xmlns:rdf="http://www.w3.org/1999/02/22-rdf-syntax-ns#"
   xmlns:svg="http://www.w3.org/2000/svg"
   xmlns="http://www.w3.org/2000/svg"
   xmlns:sodipodi="http://sodipodi.sourceforge.net/DTD/sodipodi-0.dtd"
   xmlns:inkscape="http://www.inkscape.org/namespaces/inkscape"
   version="1.0"
   id="Layer_1"
   x="0px"
   y="0px"
   width="512px"
   height="512px"
   viewBox="0 0 512 512"
   enable-background="new 0 0 512 512"
   xml:space="preserve"
   inkscape:version="0.91 r13725"
   sodipodi:docname="icon.svg"><metadata
     id="metadata39"><rdf:RDF><cc:Work
         rdf:about=""><dc:format>image/svg+xml</dc:format><dc:type
           rdf:resource="http://purl.org/dc/dcmitype/StillImage" /></cc:Work></rdf:RDF></metadata><defs
     id="defs37" /><sodipodi:namedview
     pagecolor="#ffffff"
     bordercolor="#666666"
     borderopacity="1"
     objecttolerance="10"
     gridtolerance="10"
     guidetolerance="10"
     inkscape:pageopacity="0"
     inkscape:pageshadow="2"
     inkscape:window-width="1232"
     inkscape:window-height="741"
     id="namedview35"
     showgrid="false"
     inkscape:zoom="0.4609375"
     inkscape:cx="240.81356"
     inkscape:cy="169.22034"
     inkscape:window-x="40"
     inkscape:window-y="0"
     inkscape:window-maximized="0"
     inkscape:current-layer="text4169" /><g
     transform="scale(1.0235126,0.97702755)"
     style="font-style:normal;font-weight:normal;font-size:72.97171021px;line-height:125%;font-family:sans-serif;letter-spacing:0px;word-spacing:0px;fill:#ff0000;fill-opacity:1;stroke:none;stroke-width:1px;stroke-linecap:butt;stroke-linejoin:miter;stroke-opacity:1"
     id="text4169"><path
       d="m 8.0375994,257.78932 47.7807996,0 q 47.780801,0 64.616311,3.68778 16.99586,3.68778 27.57818,18.91992 10.74267,15.07179 10.74267,48.26181 0,30.30393 -7.5359,40.72592 -7.5359,10.42198 -29.66258,12.50638 20.04228,4.97049 26.93683,13.30807 6.89454,8.33759 8.49793,15.39248 1.76372,6.89454 1.76372,38.32084 l 0,68.46443 -62.69226,0 0,-86.26198 q 0,-20.84397 -3.367103,-25.81446 -3.206765,-4.97048 -17.156193,-4.97048 l 0,117.04692 -67.5024046,0 0,-259.58763 z m 67.5024046,44.4137 0,57.72177 q 11.384016,0 15.873487,-3.04643 Q 96.0633,353.6716 96.0633,336.5154 l 0,-14.2701 q 0,-12.34605 -4.489471,-16.19416 -4.329133,-3.84812 -16.033825,-3.84812 z"
       style="font-style:normal;font-variant:normal;font-weight:normal;font-stretch:condensed;font-size:328.3727417px;font-family:Impact;-inkscape-font-specification:'Impact Condensed';fill:#ff0000"
       id="path4135" /><path
       d="m 301.61694,257.78932 38.64152,259.58763 -69.10579,0 -3.3671,-46.65843 -24.21108,0 -4.00846,46.65843 -69.90748,0 34.31239,-259.58763 97.646,0 z m -35.75543,166.91212 q -5.13083,-44.09302 -10.26165,-108.86967 -10.26165,74.39695 -12.82706,108.86967 l 23.08871,0 z"
       style="font-style:normal;font-variant:normal;font-weight:normal;font-stretch:condensed;font-size:328.3727417px;font-family:Impact;-inkscape-font-specification:'Impact Condensed';fill:#ff0000"
       id="path4137" /><path
       d="m 495.62621,257.78932 -49.22384,165.62942 0,93.95821 -62.53192,0 0,-93.95821 -47.46013,-165.62942 62.05091,0 q 14.59078,75.84 16.3545,102.13547 5.61184,-41.52761 18.75958,-102.13547 l 62.0509,0 z"
       style="font-style:normal;font-variant:normal;font-weight:normal;font-stretch:condensed;font-size:328.3727417px;font-family:Impact;-inkscape-font-specification:'Impact Condensed';fill:#ff0000"
       id="path4139" /></g></svg>